<?xml version="1.0" standalone="no"?>
<!DOCTYPE svg PUBLIC "-//W3C//DTD SVG 1.1//EN" "http://www.w3.org/Graphics/SVG/1.1/DTD/svg11.dtd" >
<svg xmlns="http://www.w3.org/2000/svg" xmlns:xlink="http://www.w3.org/1999/xlink" version="1.1">
<metadata></metadata>
<defs>
<font id="jaspers_handwritingregular" horiz-adv-x="1464" >
<font-face units-per-em="2048" ascent="1638" descent="-410" />
<missing-glyph horiz-adv-x="500" />
<glyph horiz-adv-x="0" />
<glyph unicode="&#xd;" />
<glyph unicode=" " />
<glyph unicode="!" horiz-adv-x="520" d="M102.5 50.5q6.5 15.5 22.5 27.5q10 8 17.5 12t9.5 16q2 6 1 12.5t-1 10.5q-2 8 6 17.5t18 9.5q20 0 26.5 -14.5t3.5 -35t-12.5 -42t-21.5 -33.5q-16 -16 -36.5 -18.5t-31.5 10.5q-8 12 -1.5 27.5zM315 526q-2 10 0 21.5t2 21.5q8 16 11.5 29.5t9.5 30.5q12 35 25.5 70.5 t23.5 70.5q29 80 62.5 161t68.5 161q47 106 96.5 212.5t100.5 217.5q47 92 94 182t98 182q6 14 17.5 10t3.5 -14q-37 -72 -74 -142.5t-70 -137.5q-86 -164 -155 -330q-47 -104 -87 -209t-77 -211q-14 -47 -25.5 -89t-17.5 -87q-8 -18 -10 -38t-6 -42q-4 -8 -4.5 -16.5 t-4.5 -16.5q0 -12 -6 -24.5t-10 -22.5q-12 -16 -30.5 -20t-24.5 8q-10 8 -11 22z" />
<glyph unicode="$" horiz-adv-x="1212" d="M45 68q0 4 11.5 31.5t30.5 59t46 57.5t57 26q23 0 23 -27q0 -4 -15.5 -22.5t-31.5 -41t-27.5 -40t-3.5 -17.5h6q31 -8 118 14.5t200 67.5q55 125 110.5 249t108.5 251q-47 -10 -92 -16.5t-88 -6.5q-53 0 -97.5 23.5t-44.5 77.5q2 18 6.5 37.5t18.5 42.5t62.5 69.5t118 98 t154.5 98.5t173 69q10 27 21.5 52.5t23.5 52.5q0 8 10 8q8 0 8 -6t-4 -16.5t-6 -16.5q-8 -16 -14 -33.5t-15 -33.5q25 4 48.5 7t46.5 3q33 0 63 -6l68 178q0 8 10 8q8 0 8 -8q-16 -47 -31.5 -92t-31.5 -90q37 -10 72.5 -22.5t70.5 -25.5q6 -4 6 -12t-8 -15t-23 -7 q-39 0 -66.5 15t-68.5 21l-129 -356q29 4 52.5 7t35.5 3q47 0 86 -17t39 -60q0 -66 -32.5 -127.5t-87 -116.5t-125 -105.5t-148.5 -93.5q-12 -35 -23.5 -70.5t-23.5 -70.5q-6 -12 -11 -31.5t-11.5 -39t-15.5 -33t-24 -13.5h-4q-12 0 -14 8q0 16 7 40t17.5 48.5t21.5 49 t20 45.5q4 10 7 20t7 21q-57 -29 -112.5 -54.5t-108.5 -48.5q-29 -66 -56.5 -129t-56.5 -127q-33 -66 -57.5 -101.5t-40 -49t-22.5 -8t-3 21.5v2h2v4q0 14 21.5 63.5t49.5 106.5t54.5 110.5t36.5 77.5q-29 -10 -52.5 -18t-45.5 -16q-49 -16 -104.5 -35t-110.5 -19 q-31 0 -50.5 14.5t-19.5 35.5zM427 773.5q-1 -7.5 1 -17.5q-2 -20 20.5 -28.5t60.5 -10.5t88 3t105 13q39 90 76 178t76 179q-63 -23 -133 -53.5t-130.5 -69.5t-105.5 -84t-57 -92q0 -10 -1 -17.5zM528 205q55 25 111.5 53.5t110.5 58.5q39 102 75.5 203t75.5 205 q-43 -8 -87 -18.5t-91 -20.5q-47 -121 -96 -240.5t-99 -240.5zM743 739q47 6 91.5 14.5t83.5 14.5q35 92 67.5 182t67.5 183q-10 2 -21.5 1t-25.5 -4q-23 -4 -54.5 -11t-66.5 -19q-35 -90 -70 -179.5t-72 -181.5zM797 344q70 43 128 89t100 95.5t61.5 99.5t9.5 99 q-10 4 -26.5 7t-45.5 3q-23 0 -46.5 -2t-45.5 -6q-35 -96 -68 -191.5t-67 -193.5z" />
<glyph unicode="(" horiz-adv-x="770" d="M102.5 24.5q-8.5 55.5 1 118t23.5 115.5q35 156 115 310.5t188 281.5q86 104 180.5 196.5t204.5 174.5q104 78 214 133t239 90q12 2 11 -8.5t-15 -14.5q-16 -6 -36 -14t-42 -18q-160 -94 -308.5 -201t-276.5 -236t-228.5 -286.5t-165.5 -354.5q-31 -96 -34 -170.5 t19.5 -120t71.5 -57.5t121 17q8 2 16 6q16 8 17 10q10 6 21.5 11t21.5 11q12 4 22.5 10.5t22.5 10.5q16 8 20 -4t-8 -27q-10 -6 -20.5 -15t-20.5 -16q-12 -8 -22.5 -14t-22.5 -12q-16 -10 -34.5 -19.5t-37.5 -15.5q-33 -14 -63.5 -21.5t-60.5 -5.5q-66 2 -95.5 41t-38 94.5z " />
<glyph unicode=")" horiz-adv-x="606" d="M78 -289q0 6 6 17q109 55 188.5 142t132 192.5t78 224.5t25.5 235q0 117 -25.5 228.5t-75 202.5t-123 156.5t-169.5 92.5q-8 0 -9 8q0 10 6.5 11.5t14.5 1.5h6q102 -20 182 -87t135.5 -164.5t85 -218t29.5 -249.5q0 -117 -24.5 -232.5t-75.5 -221t-130 -193.5t-188 -148 q-18 -12 -43 -12q-6 0 -16 4t-10 10z" />
<glyph unicode="," horiz-adv-x="473" d="M149.5 -227.5q-6.5 10.5 0.5 22.5q23 49 48 90t48 88q8 16 16 37t11 41.5t-2 40t-23 35.5q-10 10 2 20.5t22 2.5q41 -33 43 -84.5t-12 -94.5q-14 -47 -35.5 -92t-44.5 -92v-4q0 -6 -4 -11t-8 -14q-8 -8 -21.5 -8t-23.5 6t-16.5 16.5z" />
<glyph unicode="." horiz-adv-x="575" d="M260 0q-33 33 0 74q10 10 16.5 14t2.5 21q-1 18 -11 28q-6 12 1 24.5t18 12.5q29 0 44 -19.5t21 -45t2 -53t-12 -44.5q-14 -20 -38.5 -24t-43.5 12z" />
<glyph unicode="0" horiz-adv-x="940" d="M75.5 126q-22.5 58 2.5 144q18 61 58 134t95.5 134.5t124 97t142.5 21.5q8 0 8 -6t-6 -10q-53 -35 -104.5 -69.5t-95.5 -75.5t-80 -90.5t-56 -112.5q-8 -23 -15.5 -51.5t-7.5 -58t9.5 -54.5t37.5 -39q59 -23 130 -10.5t124 47.5q104 63 194.5 162.5t137.5 210.5 q8 16 19.5 42.5t16.5 54.5t2 53.5t-21 41.5q-20 16 -47 21.5t-54.5 7.5t-56.5 4t-53 10q-16 4 -17.5 17.5t10.5 21.5q68 53 133.5 49t111.5 -44t62.5 -106.5t-10.5 -137.5q-29 -74 -73.5 -152t-103 -146.5t-129 -124t-146.5 -81.5q-72 -25 -143.5 -24t-124 31t-75 88z" />
<glyph unicode="1" horiz-adv-x="577" d="M49 29q14 43 42 92t60.5 98t69.5 97.5t70 91.5q37 47 76 96t79 96q-92 -45 -190 -71.5t-190 -16.5q-12 4 -13.5 13.5t8.5 13.5q135 53 264.5 100t258.5 113q12 6 24.5 3t19.5 -12.5t8 -22.5t-9 -24q-84 -86 -159 -178t-149 -186q-57 -80 -112 -167t-131 -151 q-8 -10 -19.5 -3t-7.5 18z" />
<glyph unicode="2" horiz-adv-x="784" d="M20 93q-14 11 0 36q29 45 74 81t97.5 64.5t106.5 52t101 46.5q27 12 57.5 27.5t59.5 33t54.5 39t41.5 47.5q33 59 0.5 86t-96.5 19q-72 -10 -136.5 -35t-123.5 -70q-8 -4 -14 5.5t2 13.5q45 37 108.5 67.5t125 49t111.5 19.5t73 -24q49 -55 41.5 -104t-51.5 -93 t-112.5 -85t-143 -79t-145.5 -75t-116 -72q63 -14 132 -27.5t136 -17.5q78 -2 139.5 10.5t137.5 22.5q8 2 18.5 1t17.5 -5t8 -10t-7 -15q-57 -53 -142.5 -66t-178.5 -7t-183 23.5t-156 25.5q-23 4 -37 15z" />
<glyph unicode="3" horiz-adv-x="804" d="M34 20.5q-1 12.5 6 24.5t26 16q57 14 123.5 18.5t132 13.5t125 31.5t100.5 74.5q41 51 34.5 76.5t-31 43t-55 38t-36.5 61.5q-14 84 25.5 127t111.5 78q14 6 44 24.5t48.5 42t11 46t-70.5 36.5q-47 14 -103 8q-35 -4 -65.5 -13t-65.5 -15q-10 -2 -11 6t3 12q23 27 70 42 t99 17t98 -12t67 -47q33 -51 25.5 -85t-34 -59.5t-66.5 -45t-72.5 -40t-52 -46t-5.5 -62.5q8 -25 23.5 -38t34 -25.5t39 -27.5t38.5 -42q12 -18 9 -39.5t-14 -44t-26.5 -41t-27.5 -31.5q-39 -41 -101.5 -70.5t-134 -49t-146.5 -28.5t-138 -7q-16 0 -26.5 10t-11.5 22.5z" />
<glyph unicode="4" horiz-adv-x="772" d="M61 227q6 92 50.5 183.5t112 171.5t149.5 142t162 99q4 4 8 -3t-2 -9q-57 -39 -114.5 -90t-109 -110.5t-93.5 -123t-68 -127.5q-14 -33 -22.5 -56t-2.5 -35.5t29.5 -14.5t70.5 10q37 8 75 17.5t73 25.5q78 31 155.5 68t157.5 71q10 4 21.5 -6t7.5 -20q-16 -45 -36.5 -88 t-36 -86t-24 -87t-1.5 -91q0 -14 -9.5 -22.5t-21.5 -8.5t-22.5 7t-10.5 24q4 88 33 161.5t63 151.5q-70 -31 -137 -63.5t-137 -59.5t-142.5 -43t-148.5 -16q-10 0 -19.5 8t-9.5 20z" />
<glyph unicode="5" horiz-adv-x="696" d="M98 85q-2 11 8 24q35 41 76 75.5t84 67.5t85 66.5t79 72.5q-33 10 -68.5 20.5t-69.5 24t-59.5 33.5t-37.5 49q-12 33 -7 62.5t20 55.5t38.5 48.5t46.5 40.5q57 49 131 88t143 68q59 27 91.5 4t50.5 -80q4 -10 -5.5 -14.5t-17.5 2.5q-25 33 -72 28.5t-100 -28t-102.5 -56 t-75.5 -55.5q-18 -18 -41 -42t-34 -49.5t-3 -49t49 -41.5q43 -18 90 -32.5t95 -31.5q16 -4 19 -18.5t-7 -28.5q-78 -94 -174.5 -166.5t-184.5 -154.5q-10 -10 -20 -9.5t-17.5 8t-9.5 18.5z" />
<glyph unicode="6" horiz-adv-x="790" d="M59.5 212q-12.5 73 0 148.5t36.5 126.5q37 78 110 172.5t162 183.5t185 160.5t180 102.5q4 4 7 0t1 -8q-16 -49 -64 -86t-89 -68q-59 -51 -117.5 -104.5t-112.5 -110.5q-70 -72 -136 -158t-91 -188q-6 -27 -9 -65.5t0 -79.5t18.5 -76t45.5 -53q43 -23 89.5 -8.5t89.5 47 t78.5 73.5t54.5 72q23 39 49 85t22 93q0 25 -10 40t-25.5 24.5t-35 15.5t-39.5 12q-12 4 -12.5 18.5t12.5 18.5q61 20 98 2t53.5 -57t14.5 -89t-21 -94q-23 -49 -59.5 -107t-84.5 -109.5t-106.5 -85t-120.5 -29.5q-80 4 -120.5 56t-53 125z" />
<glyph unicode="7" horiz-adv-x="727" d="M-141 -336q2 72 25.5 136.5t61.5 119.5t89 102.5t108 86.5l25.5 17l28.5 19q45 72 88 144.5t90 140.5q76 111 167 219.5t208 179.5q-23 16 -41.5 36t-36.5 36q-39 37 -71 32t-52.5 -33t-27.5 -69.5t3 -78.5q0 -2 -2 -2q-12 25 -20 62.5t-4 74.5t22.5 64.5t59.5 33.5 q33 4 61.5 -11.5t54 -37t50 -44t51.5 -34.5q70 35 147 49q20 4 31.5 -13t-4.5 -34q-33 -37 -73 -59.5t-85 -9.5q-76 -43 -140.5 -101.5t-119.5 -127t-104.5 -142.5t-92.5 -146q-10 -12 -16 -25t-16 -28q82 47 169 81t173 38q14 2 16 -12.5t-8 -20.5q-88 -53 -201 -99 t-223 -106q-74 -123 -152 -241.5t-176 -218.5q-18 -16 -40.5 -8t-22.5 30zM-59 -233q49 59 95 122.5t87 130.5q-66 -49 -114 -110t-68 -143z" />
<glyph unicode="8" horiz-adv-x="858" d="M44 177.5q-7 48.5 9 105.5q25 113 75 174t111.5 81.5t125 6t114.5 -50.5q-2 39 -5 76.5t-7 84.5q-10 88 18.5 149.5t106.5 108.5q74 47 130 23.5t90 -80.5t43 -132t-9 -130q-10 -31 -31.5 -62.5t-50.5 -58.5t-62.5 -45t-66.5 -25q-27 -4 -51.5 -5t-46.5 1 q-27 -111 -101 -204t-186 -134q-55 -18 -99.5 -6.5t-72 43t-34.5 80zM89 202q-1 -38 20 -69q25 -37 64.5 -36t81.5 21.5t79 51.5t55 51q43 51 63.5 97.5t24.5 95.5q-41 18 -73.5 39.5t-67.5 30t-73 -9t-87 -75.5q-18 -23 -38.5 -55.5t-34 -68t-14.5 -73.5zM525 659 q5 -41 14.5 -84t7.5 -88v-2q59 -4 121.5 17.5t99.5 85.5q27 41 37 89t-10 97q-14 35 -41 60.5t-58.5 35t-65.5 -1t-61 -43.5q-35 -43 -42 -84t-2 -82z" />
<glyph unicode="9" horiz-adv-x="653" d="M-356 -500q43 72 109.5 152t142 164t156.5 171t152.5 176t129 178t86.5 177q-41 -4 -76 11.5t-57 56.5q-25 43 -14.5 94t42 97t79.5 82t98.5 47.5t95 -6.5t71.5 -77q4 -10 -3 -15t-13 -1q-45 43 -93 44t-91 -24.5t-75 -68.5t-42 -88q-10 -49 16.5 -69.5t71.5 -16.5 q20 0 39 8q86 115 209 180q20 10 35.5 -5t5.5 -34q-23 -47 -78 -101t-123 -87q-106 -217 -243.5 -396.5t-299.5 -349.5q-76 -80 -144.5 -169t-149.5 -158q-16 -14 -32 -1t-5 29z" />
<glyph unicode=":" horiz-adv-x="346" d="M133 727q-29 25 0 55q4 8 10.5 12.5t3.5 14.5q0 8 -4 13t-6 9q-4 10 1 19.5t16 9.5q20 0 31.5 -15.5t16.5 -36t3 -40.5t-10 -33q-12 -16 -31 -19t-31 11zM143 14q-25 27 0 56q8 8 13.5 12t1.5 16q0 15 -8 23q-4 8 1 17t13 9q20 0 32.5 -14t16.5 -34.5t2 -42t-10 -33.5 q-10 -16 -28.5 -18.5t-33.5 9.5z" />
<glyph unicode=";" horiz-adv-x="356" d="M115 -211q23 49 48 90t48 88q8 16 16.5 37t11.5 41.5t-2.5 40t-23.5 35.5q-10 10 2 20.5t23 1.5q41 -33 43 -84t-13 -94q-14 -47 -35.5 -92t-44.5 -92v-4q0 -6 -4 -11.5t-8 -13.5q-8 -8 -21.5 -8t-23.5 6t-16 16.5t0 22.5zM139 729q-29 25 0 55q4 8 10.5 12.5t4.5 14.5 q0 8 -4.5 13.5t-6.5 9.5q-4 10 1.5 19t15.5 9q20 0 31.5 -15.5t16.5 -35.5t3 -40.5t-10 -33.5q-12 -16 -30.5 -19t-31.5 11z" />
<glyph unicode="&#x3c;" horiz-adv-x="892" d="M74 483q6 20 26 35q94 51 180.5 110.5t178.5 116.5q45 31 89 62t91 53q20 10 38.5 21.5t41.5 19.5q18 8 36 14.5t36 6.5q8 4 8 -3.5t-6 -11.5q-16 -10 -34 -19t-34 -18q-23 -12 -43 -23t-37 -24q-45 -29 -91 -58.5t-87 -57.5q-68 -47 -134.5 -95.5t-135.5 -95.5 q100 -6 186 -43q57 -23 109.5 -52.5t105.5 -60.5q8 -4 7 -15t-9 -17q-8 -10 -18.5 -12.5t-20.5 1.5q-49 29 -100 59t-108.5 52.5t-120 32.5t-134.5 2q-10 0 -16 5t-4 15z" />
<glyph unicode="&#x3e;" horiz-adv-x="706" d="M193 829q-4 10 7 16.5t17 0.5q86 -115 197 -199q18 -12 48 -34.5t63.5 -45t65.5 -40t52 -21.5q4 0 5 -1t5 -1q20 -4 13 -24.5t-25 -30.5q-53 -25 -103.5 -41.5t-97.5 -37t-93 -48t-91 -72.5q-18 -14 -39 -10q-4 4 -6 5t-6 5t-2 15t6 16q35 51 93 86.5t114 64.5 q59 29 127 51q12 4 20 9q-4 2 -5 4t-5 6q-16 8 -29.5 19t-29.5 22q-29 20 -57.5 39.5t-57.5 42.5q-53 45 -102 95t-84 109z" />
<glyph unicode="?" horiz-adv-x="638" d="M23 1036q0 2 4 6q37 47 100 108.5t143 126t171 127t184.5 112t182.5 79t167 29.5t120 -43t42 -125q0 -78 -48.5 -158.5t-121 -161.5t-157.5 -161t-156.5 -155t-118 -143.5t-41.5 -127.5v-18.5t2 -17.5t8 -10t20 1q6 2 9.5 3t7.5 1q18 0 18 -12q0 -8 -9 -18.5t-21.5 -18.5 t-24.5 -14.5t-17 -6.5q0 2 2 2l3 2q-6 0 -10.5 -6t-26.5 -6q-27 0 -39.5 14.5t-7.5 30.5q29 119 91 219.5t137 185.5t153.5 158.5t143 141t106.5 130t42 126.5q0 12 -2 29.5t-6 35t-10 28.5t-14 11v2q2 0 4 -2l-4 4q-10 18 -30 19.5t-36 9.5h-2q-2 0 -2 2q-96 0 -217 -47 t-247 -124t-248 -173.5t-222 -196.5q-6 -6 -12 -6q-10 0 -10 8zM244 37q0 14 8 23.5t17.5 16.5t17.5 16t8 22v14v4q0 8 7 15.5t15 7.5q16 0 24.5 -10.5t8.5 -26.5q0 -41 -24.5 -74t-55.5 -33q-27 0 -26 25z" />
<glyph unicode="@" horiz-adv-x="2439" d="M228 136.5q-5 142.5 30 283.5t101.5 273t159.5 251t204 215q98 86 214 167t239.5 144.5t256 103.5t266.5 48t266 -22.5t259 -108.5q162 -102 239 -250.5t78 -311.5t-72 -321.5t-212 -277.5q-59 -53 -135 -100.5t-160 -79t-172 -43t-170 11.5q-35 10 -55.5 36.5 t-28.5 60.5t-5 70t15 62q18 49 54 90t70 82t58.5 87t20.5 102q12 -6 25.5 -11.5t29.5 -13.5q-86 -111 -203.5 -175.5t-263.5 -57.5q-35 0 -70.5 11t-66.5 32.5t-52.5 51t-25.5 66.5q-10 84 25 156t96.5 124t142 84t163.5 37t160 -20t130 -84q4 -4 0 -8t-10 -2 q-59 29 -123 44t-127 13t-123.5 -24.5t-116.5 -71.5q-20 -18 -55 -53t-60.5 -75t-32.5 -81t28 -73q61 -59 138 -61.5t151.5 28t141 83t107.5 105.5q16 16 37 6t21 -30q4 -66 -25 -121.5t-72 -106.5q-14 -18 -32.5 -38.5t-37 -43t-34 -46t-21.5 -50.5q-10 -45 3.5 -71.5 t39 -40t59.5 -16.5t64 1q174 10 324.5 98t247.5 234q41 61 74.5 132t52 145.5t18.5 150.5t-25 149q-31 94 -90 168t-136 127.5t-168 87t-183 48.5q-113 18 -228.5 3.5t-230.5 -53.5t-224.5 -99t-209.5 -133t-188 -154t-158 -160q-61 -74 -115.5 -155t-96.5 -169 t-66.5 -182.5t-24.5 -190.5q0 -111 25.5 -213t69.5 -196.5t103.5 -184.5t124.5 -176q6 -10 4 -17t-8 -11.5t-14 -4.5t-14 5q-51 39 -96.5 79.5t-86.5 87.5q-104 125 -155.5 263.5t-56.5 281z" />
<glyph unicode="A" horiz-adv-x="1433" d="M6 117q0 10 2 18t10 19q141 182 269.5 374.5t259.5 389.5q-2 16 -4 34.5t-2 34.5t13 28.5t30 12.5q8 0 20 -6q2 -6 10 -8q35 51 71 99t75 97q70 92 157 205t181 213.5t190 168t182 67.5q47 0 86 -30t39 -85q0 -51 -26.5 -113.5t-62.5 -121t-70.5 -106.5t-51.5 -71 q-102 -147 -194 -294.5t-180 -301.5q66 -35 139.5 -60.5t159.5 -29.5q8 0 8 -10q0 -6 -13.5 -10t-32 -5t-36.5 -2t-27 -1q-66 0 -122 13t-111 40q-100 -180 -201 -377q-10 -23 -21.5 -44.5t-23.5 -47.5q4 -16 4 -34.5v-35.5q0 -35 -3 -70.5t-12 -64.5t-25.5 -46t-45.5 -17 q-33 0 -33 38v7.5t2 9.5q10 51 25.5 101t34.5 102q-16 150 -52 295t-59 292q-57 -84 -114.5 -165.5t-110.5 -167.5q-25 -35 -61.5 -100.5t-76.5 -130t-79 -113t-64 -48.5q-23 0 -38 17.5t-15 40.5zM633 881q16 -141 45 -287t45 -293q49 102 107.5 200.5t109.5 194.5 q-78 41 -149.5 95.5t-145.5 107.5zM653 -2q0 -6 2 -6t7.5 7t10.5 17.5t8 19.5t3 15v31.5t-2 32.5q-29 -70 -29 -117zM684 961q76 -53 144.5 -104.5t140.5 -94.5q86 156 175 300t185 298q23 37 54.5 83t60.5 96t49 101.5t20 98.5q0 41 -30 41q-18 0 -42 -10.5t-46.5 -22.5 t-41 -23.5t-24.5 -15.5q-76 -59 -144.5 -128t-133 -143.5t-124 -152.5t-116.5 -154q-33 -41 -64.5 -84.5t-62.5 -84.5z" />
<glyph unicode="B" horiz-adv-x="1738" d="M7 27.5q-1 11.5 7 21.5q215 268 420 585.5t436 668.5q12 18 30 19t31 -8t17 -26.5t-10 -34.5q-68 -68 -126 -147.5t-111.5 -163.5t-103.5 -170t-101 -166q-100 -156 -207 -305.5t-232 -290.5q-10 -10 -21 -9t-19.5 8t-9.5 18.5zM352 18.5q0 14.5 13 24.5 q86 66 192.5 104.5t204.5 75.5q145 57 289.5 113.5t279.5 130.5q31 14 75 36.5t89 50.5t83 61.5t58 71.5q14 27 14 56q0 11 -2 23q-8 41 -55 84q-37 33 -74.5 61.5t-68.5 60.5q-32 32 -50 70q-17 35 -16 83v10q2 61 38 99t84 64.5t98.5 49t85.5 57.5q43 45 43 82q-1 9 -3 18 q-12 45 -56 79t-103.5 55.5t-100.5 29.5q-57 13 -135 21q-58 6 -118 6q-21 0 -43 -1q-82 -3 -159 -20.5t-131 -56.5q-56 -38 -80 -102q-12 -31 -12 -71t13 -87q4 -8 -4 -9t-10 5q-24 66 -24 119q1 43 17 77q36 74 116.5 115t191 55.5t215.5 14.5q37 0 102.5 -11.5t135 -33 t135 -54t100.5 -74.5q31 -37 31 -82q-1 -6 -1 -12q-4 -52 -71 -112q-20 -18 -55 -40t-74 -46.5t-75 -51.5q-35 -26 -55 -57q-17 -27 -17 -55v-8q3 -32 42 -70q20 -20 48 -39.5t55.5 -41t51 -45t38.5 -50.5q31 -54 32 -104v-6q0 -47 -18 -87q-18 -43 -54 -81.5t-79 -73.5 q-123 -96 -268.5 -169t-298 -133.5t-307 -114.5t-295.5 -112q-16 -6 -29.5 0t-21 19.5t-7.5 28z" />
<glyph unicode="C" horiz-adv-x="1478" d="M12 383q12 86 54 174q68 143 159.5 280.5t204.5 260.5t243 226t271 179q47 25 103.5 48.5t116 40t117.5 19.5h17q50 -1 92 -15q50 -18 86.5 -58.5t55.5 -114.5q4 -16 -4 -27.5t-20.5 -15.5t-25 2.5t-18.5 22.5q-27 81 -81 111q-45 25 -100 25q-11 0 -23 -1 q-68 -6 -145 -38t-149.5 -75t-133 -88t-97.5 -73q-96 -80 -192.5 -172.5t-181.5 -195.5t-150.5 -216t-101.5 -233q-21 -71 -21 -125q0 -32 8 -58q20 -70 78 -110q58 -42 146 -54q60 -8 125 -8q32 0 65 2q102 6 210.5 26.5t208 46.5t180.5 52.5t130 44.5q16 4 20.5 -10 t-12.5 -18q-109 -45 -229.5 -89.5t-246.5 -76.5t-253 -44q-47 -5 -94 -4q-78 0 -152 13q-104 16 -166 67q-62 50 -84 122q-14 46 -14 97q0 29 4 60z" />
<glyph unicode="D" horiz-adv-x="1759" d="M-30 256q-3 20 14 39q127 141 231 300t200.5 315.5t190 299.5t195.5 254q4 4 9 0t1 -8q-102 -147 -185 -310t-166 -325t-177.5 -315.5t-221.5 -282.5q-18 -18 -39.5 -16t-35 15.5t-16.5 33.5zM39 -64.5q0 23.5 14.5 42t42.5 16.5q54 -7 109 -7q73 0 148 12 q132 21 262 70.5t255 123t238 161.5t209 183.5t170 191.5q51 66 120.5 158t126 195.5t84.5 207.5q13 50 13 97q0 51 -16 98q-43 117 -129.5 182.5t-190.5 81.5q-37 6 -74 6q-69 1 -140 -19q-110 -30 -198 -102q-6 -8 -13 0t-3 13q66 55 153 93t179 47q25 2 51 3 q66 0 129 -18q88 -24 158 -89q85 -82 113 -176q19 -66 20 -134q0 -28 -4 -57q-12 -97 -52 -194.5t-96 -185.5q-129 -213 -303 -401.5t-382 -332t-445.5 -230.5t-491.5 -99q-29 0 -43 19.5t-14 43z" />
<glyph unicode="E" horiz-adv-x="1617" d="M31 8q14 100 66.5 194.5t121 183.5t143 171t136.5 156q35 39 93 103.5t122 141.5q-23 12 -28 43t24 54q49 35 118 59q59 96 92 190q18 53 18 100q0 37 -11 69q-14 -2 -26.5 7t-19 22.5t-4 29.5t14.5 27q10 10 29 22q14 14 30 2q100 39 201.5 85t204 82t208.5 50 q43 6 87 6q64 0 129 -12q12 -4 12 -16.5t-12 -14.5q-102 -16 -200.5 -45.5t-195 -64.5t-190.5 -75t-190 -77q6 -38 6 -75q0 -54 -14 -107q-24 -88 -68 -174q82 20 162 20q12 -1 25 -1q93 -4 165 -42q10 -8 7 -22.5t-19 -14.5q-34 4 -68 4q-78 1 -156 -19q-112 -28 -213 -75 q-31 -41 -59.5 -78.5t-56.5 -74.5q-72 -88 -160 -181.5t-174 -193.5t-156.5 -206.5t-105.5 -219.5q117 16 224.5 62.5t208.5 104.5t199.5 122.5t198.5 120.5q12 6 23.5 -3.5t1.5 -23.5q-68 -92 -174.5 -170t-229 -138.5t-250.5 -100.5t-239 -56q-25 -4 -40 11.5t-11 37.5z " />
<glyph unicode="F" horiz-adv-x="1748" d="M11 91q9 44 37 97.5t69 109.5t83 107.5t75.5 90.5t48.5 59q72 94 140 191.5t130 201.5q-26 -1 -52 -1t-52 1q-50 2 -103 10q-12 4 0 9q59 4 117.5 12t118.5 16q78 137 139 279.5t96 292.5q-23 -4 -45 -6t-45 -2q-18 -2 -28.5 8t-11.5 24.5t5 27.5t23 19q176 59 358 112.5 t363 102.5q61 16 136 36t153 28q36 4 71 4q40 0 79 -5q73 -9 132 -48q10 -6 8 -22.5t-16 -12.5q-71 9 -141 9q-106 0 -206 -21q-167 -35 -335 -90q-102 -33 -209 -77t-213 -73q-35 -147 -91.5 -289.5t-127.5 -277.5q92 16 182 38.5t182 49.5q61 14 126 33.5t131 36.5 q66 16 132 25q45 6 91 6q20 0 41 -1q20 -2 23 -20.5t-17 -26.5q-72 -29 -152 -48.5t-162 -35.5t-164.5 -31.5t-160.5 -31.5q-72 -16 -141.5 -29.5t-141.5 -20.5q-53 -102 -116.5 -197t-129.5 -188q-100 -135 -191 -276t-190 -274q-6 -6 -15 -9.5t-17 6.5q-18 20 -18 49 q0 10 2 22z" />
<glyph unicode="G" horiz-adv-x="1794" d="M19 260q0 50 20 102q55 162 157.5 308.5t231.5 277.5t273.5 244t283.5 205q23 14 74 48t119.5 74t149.5 81.5t161 73.5t155 48q42 8 79 8q27 0 51 -4q57 -12 90 -57q32 -42 32 -123v-10q0 -33 -30 -41q-20 -4 -33 -8q-20 -4 -33.5 6t-17.5 24.5t2 29t24 20.5q2 0 -6 12 t-21.5 25.5t-29.5 25.5t-31 12q-18 0 -37.5 -2t-40.5 -6q-57 -12 -111 -32.5t-108 -49.5q-117 -57 -225 -122.5t-213 -139.5q-186 -129 -354 -280.5t-309 -333.5q-31 -41 -69 -90t-70.5 -103.5t-54.5 -110.5q-19 -48 -19 -97v-13q2 -61 31.5 -90t75.5 -35q15 -2 31 -2 q33 0 71 9q55 12 109 32.5t99 43t70 36.5q145 90 256 213q27 29 58.5 64.5t35.5 74.5q2 18 -11 27.5t-36 11.5q-37 -4 -76 -7t-78 -7q-16 -2 -27 10t-13.5 27.5t5 29t25.5 15.5q4 0 5 1t5 1h19q31 4 70 7q16 1 32 1q22 0 43 -2q33 1 65 1q64 0 128 -3q94 -4 188 -16 q14 -2 14.5 -12.5t-14.5 -10.5q-66 -8 -132 -15.5t-132 -11.5q2 -10 4 -22t-2 -27q-8 -53 -40 -103t-75 -95.5t-89 -85t-85 -70.5q-51 -41 -114.5 -81t-133 -69.5t-141.5 -45.5q-47 -10 -92 -10q-24 0 -47 3q-61 8 -103 38t-65 73q-24 45 -24 100z" />
<glyph unicode="H" horiz-adv-x="1779" d="M13 67.5q-3 14.5 1 31t17 26.5l14 10q10 12 27.5 43t35 64.5t33 63.5t21.5 38q37 57 75.5 113.5t79.5 109.5q55 76 113.5 148.5t120.5 144.5q-29 2 -56.5 3t-52.5 5q-27 0 -20.5 21.5t29.5 25.5q70 6 147 7q14 20 30.5 40.5t35.5 43.5q76 98 141 197.5t137 203.5 q20 31 41 61.5t45.5 56t54 44t66.5 24.5q6 2 12 -3t0 -15q-51 -88 -113.5 -169t-115.5 -173q-47 -84 -106.5 -160t-118.5 -151h79.5t79.5 4q98 8 190.5 27.5t188.5 31.5q16 2 16.5 -15.5t-12.5 -25.5q-66 -39 -139.5 -59.5t-149.5 -28.5q-68 -7 -138 -7h-17q-78 1 -152 7 q-145 -190 -283.5 -379.5t-254.5 -398.5q-10 -20 -23.5 -27.5t-34.5 -9.5l-4 -2q-18 -4 -27.5 5t-12.5 23.5zM1063 113.5q0 27.5 10 58.5t21 47q66 129 149.5 255t169.5 249q111 160 224.5 314.5t236.5 308.5q72 90 145.5 181t163.5 163q10 8 21.5 8t18.5 -6t7 -15.5 t-8 -17.5q-170 -193 -320.5 -402.5t-291.5 -418.5q-170 -236 -316 -478q-31 -47 -57.5 -93t-48.5 -99q-4 -10 -8 -22.5t-8.5 -22.5t-9.5 -15.5t-9 -1.5q4 -14 -6 -27t-23 -18q-37 -10 -49 7.5t-12 45z" />
<glyph unicode="I" horiz-adv-x="1478" d="M52 46q1 13 14 26q166 162 321.5 330.5t288.5 359.5q86 119 170 239.5t176 237.5q-143 -31 -284.5 -68.5t-278.5 -87.5q-29 -10 -69 -22t-81 -27.5t-81 -35t-68 -44.5q96 -23 177 -61.5t161 -104.5v-2q0 -2 -1 -3t-1 1q-96 41 -196.5 70t-203.5 43q-20 2 -30.5 16.5 t0.5 34.5q25 49 78 85t115.5 62.5t126 44t110.5 34.5q193 59 385 107t389 85q55 8 120.5 23.5t133.5 24.5t132 10h6q61 0 114 -17q45 -14 43 -40t-24.5 -51.5t-55.5 -47t-51 -27.5q-14 -2 -25.5 4t-19 16.5t-6.5 21.5t12 20q14 10 27.5 20t29.5 16q-29 4 -57.5 1t-55.5 -5 q-117 -10 -232.5 -29.5t-230.5 -43.5q-2 0 -4 -2q-109 -150 -213 -296.5t-212.5 -289t-223.5 -279.5t-239 -268q182 51 361 102.5t366 94.5q16 6 22 -10.5t-10 -26.5q-207 -98 -427 -166t-441 -121q-16 -4 -29.5 3t-21 18.5t-6.5 24.5z" />
<glyph unicode="J" horiz-adv-x="1054" d="M-440 -829q-3 15 -3 30q0 44 23 89q29 59 58 106q158 276 368.5 556.5t443 563.5t470 562.5t448.5 551.5q-156 -52 -324 -52q-18 0 -36 1q-187 6 -349 84q0 -70 -22.5 -141.5t-56 -140t-70.5 -130t-66 -110.5q-6 -8 -10 -6t-2 10q8 16 39 80.5t64.5 147.5t59.5 169 q22 72 22 126q0 10 -1 20q-72 37 -131 98q-6 2 -6 10q-8 12 -4 24.5t13.5 19.5t21.5 8t25 -9q0 -2 4 -2q-10 20 7 15t44 -19q20 -12 34.5 -32.5t22.5 -41.5q0 -4 2 -8q94 -57 203 -81q90 -19 181 -19q19 0 39 1q110 5 217.5 36.5t199.5 87.5q14 8 28.5 5t22.5 -14.5t8 -27 t-10 -29.5q-207 -256 -425 -520t-433 -531.5t-419 -534.5t-382 -530q-53 -80 -106.5 -158.5t-91.5 -168.5q-2 -4 -8.5 -14.5t-10.5 -20.5q4 0 16 6q20 10 38 3t27 -23.5t7 -35t-22 -30.5q-16 -10 -43 -20.5t-52.5 -12.5t-46 8.5t-26.5 43.5z" />
<glyph unicode="K" horiz-adv-x="1388" d="M20.5 115.5q-4.5 27.5 8.5 62.5q25 66 60.5 128.5t76.5 120.5t85 114.5t85 111.5q117 152 240.5 299.5t247.5 295t244 297t230 306.5q12 16 28.5 17.5t31 -7t19.5 -23.5t-7 -32q-160 -225 -339 -433t-351 -425q-104 -125 -203.5 -251t-195.5 -257q-12 -20 -45 -61 t-66 -89q-34 -48 -54 -93q-13 -28 -13 -48q0 -13 6 -24q63 41 116 76q47 29 88 56.5t56 37.5q111 86 216 173t216 177q18 16 58 52t88 77t102.5 82t104.5 66.5t91 28.5h7q36 0 57 -29q12 -16 11.5 -37t-11.5 -47q-23 -54 -64 -110t-86 -104.5t-67 -68.5q-20 -18 -63.5 -55 t-88.5 -80t-84 -88t-52 -84q-5 -15 -5 -28q0 -22 13 -38q21 -26 97 -32q12 0 19.5 -8.5t8.5 -18.5t-3 -18.5t-16 -10.5q-27 -4 -62 -6q-10 -1 -20 -1q-24 0 -48 4q-34 5 -61 21.5t-35 53.5q-4 16 -4 33q0 21 6 41q12 36 36 72t52.5 66t51.5 50q47 43 100 84t103 86t96.5 94 t76.5 105q18 33 15.5 44t-18 7t-39 -18.5t-46.5 -28.5q-147 -104 -282 -219t-275 -230q-47 -37 -95 -81t-100.5 -85t-106.5 -74.5t-109 -54.5q-26 -9 -49 -9q-8 0 -15 1q-29 4 -47 21.5t-22.5 45z" />
<glyph unicode="L" horiz-adv-x="1308" d="M18 96.5q-6 22.5 4.5 50t31 53t32.5 38.5q123 145 258 279t268 274q115 121 225.5 246.5t220 253.5t222 253t231.5 242q4 2 8.5 0t2.5 -6q-121 -199 -268.5 -383.5t-308.5 -360.5t-326.5 -345t-325.5 -337q-39 -41 -80 -83t-76 -87q-37 -37 -40 -50t12.5 -13t41 7 t46.5 11q109 14 211 49t204 71q100 35 204 59q82 19 171 19q22 0 45 -1q12 0 20.5 -10.5t8.5 -21.5t-7 -20.5t-22 -9.5q-76 0 -143.5 -10t-133 -26.5t-130 -40t-133.5 -47.5q-47 -18 -100.5 -37t-110 -32t-112.5 -19q-19 -2 -37 -1q-36 0 -71 7q-37 6 -43 28.5z" />
<glyph unicode="M" horiz-adv-x="1961" d="M22 78q2 50 33 123t84.5 162.5t116.5 182.5t132 184t129.5 167t105.5 129.5t63 71.5q14 12 26.5 -0.5t2.5 -24.5q-92 -117 -179 -232.5t-171 -236.5q-72 -111 -149 -227.5t-120 -241.5q-4 -10 -11 -21.5t-10 -17.5t1 -3t22 22q23 23 42.5 42t35.5 42q129 156 235.5 299 t204 276t191.5 257t199 241q23 25 51 54.5t61 58t67 53t64 41.5q40 19 66 19q17 0 27 -8q28 -21 27 -67q-1 -40 -17 -87q-18 -50 -35 -79q-57 -94 -119.5 -180t-122.5 -178q-8 -14 -20.5 -31.5t-23.5 -36t-18 -38t-7 -33.5q0 12 24.5 28.5t58 34t65.5 32.5t46 26 q111 82 212 173t199.5 186t197 190.5t202.5 183.5q43 36 87 56q38 18 63 17q4 -1 9 -1q31 -4 31 -38q0 -31 -36 -96q-53 -98 -114.5 -193t-127 -188.5t-131.5 -186.5t-125 -187q-76 -113 -146.5 -226.5t-131.5 -236.5q-18 -33 -33 -65.5t-22 -57.5t-7 -39t12 -12 q47 14 88 40.5t105 51.5q51 20 51 -10q0 -22 -37 -45q-14 -8 -38.5 -27.5t-55.5 -41.5t-65.5 -40t-67.5 -26.5t-60.5 -2t-44.5 34.5q-16 28 -16 59v7q2 35 13.5 70.5t28.5 69.5l30 60q61 121 134 231.5t150.5 218.5t158.5 213t161 214q27 39 72 97.5t87 115.5t72.5 103 t30.5 60.5t-39 -13t-137 -117.5q-55 -59 -112.5 -115.5t-112.5 -110.5q-76 -74 -164 -166t-185.5 -176t-203 -146t-215.5 -77q-10 -4 -21.5 3t-15.5 18q-13 27 -13 57q1 22 7 45q16 55 50 109.5t73.5 103.5t64.5 82q47 61 85 113.5t73 124.5q25 45 16.5 52t-31 -6.5t-48 -36 t-38.5 -32.5q-150 -152 -282.5 -315.5t-260.5 -331.5t-258 -335t-274 -323q-6 -4 -15 -7t-18 1q-39 13 -39 58v6z" />
<glyph unicode="N" horiz-adv-x="2004" d="M23 70q25 150 79 297t127.5 287.5t160.5 271.5t177 248q86 117 193.5 229.5t220.5 204.5q20 16 45 36.5t52.5 37t58 24.5t61.5 0q18 -6 23 -23q6 -27 2 -54t-13.5 -56t-19.5 -56.5t-19 -52.5q-35 -104 -75.5 -205.5t-79.5 -205.5q-41 -104 -87 -215t-87 -224.5 t-72 -229.5t-37 -228q-1 -13 -1 -25q0 -35 10 -49q12 -19 35.5 -13.5t54 27t61.5 43.5q76 57 143.5 130t127 153t114.5 162t111 159q111 164 225.5 324t249.5 307q111 125 238.5 247t279.5 208q18 10 33.5 6t23.5 -15.5t4 -25.5t-22 -25q-72 -41 -134.5 -97t-121.5 -113 q-238 -233 -432.5 -492.5t-386.5 -529.5q-49 -68 -108.5 -155t-130.5 -168t-150.5 -145.5t-168.5 -84.5q-22 -5 -41 -5q-49 -1 -69 33q-27 42 -26 116v15q3 84 30 189.5t59.5 203t62.5 171t38 96.5q66 174 136.5 340t131.5 340q10 31 21.5 60.5t19.5 60.5q6 35 7 39t11 6 q-37 -4 -71.5 -24.5t-67.5 -48.5t-62.5 -58.5t-52.5 -55.5q-184 -188 -344.5 -403t-289.5 -445q-63 -111 -120 -227.5t-89 -243.5q-10 -47 1 -49t32.5 16.5t46 47t36.5 45.5q41 47 81 96t83 96q2 4 6 1t2 -7q-27 -41 -59.5 -95t-72.5 -104.5t-87 -90.5t-98 -50q-10 -2 -15 5 t-5 16z" />
<glyph unicode="O" horiz-adv-x="1486" d="M31 188q-4 32 -4 66q0 38 5 78q9 76 30.5 149.5t48.5 130.5q82 180 190.5 351.5t253.5 306.5q37 37 88 78t107 68q58 28 116 33q7 1 14 0q51 0 97 -30q31 -20 20 -45q-12 -78 -42.5 -137t-75.5 -125q-2 -4 -8.5 -1t-2.5 9q6 27 28 72t32 84q10 38 -2 62q-7 15 -33 15 q-15 0 -37 -5q-61 -16 -111.5 -49t-93.5 -76q-106 -100 -191 -217t-159 -242q-14 -27 -47 -94.5t-66.5 -149.5t-57.5 -167q-21 -74 -21 -131q1 -8 1 -16q4 -62 43 -92q19 -13 49 -12q35 0 85 17q104 37 202.5 95t190.5 130t176 150.5t162 156.5q117 115 216 263.5t148 312.5 q6 23 14.5 52.5t13.5 60t2 58t-21 50.5q-20 29 -48 38t-58 6t-58.5 -17.5t-46.5 -32.5q-20 -20 -43 -17.5t-38.5 18t-18.5 38t18 41.5q56 49 122 60q23 4 45 4q41 0 77 -14q56 -20 92 -71q32 -46 32 -115v-16q-4 -84 -26.5 -168t-59.5 -165t-83 -156.5t-97 -141.5 q-43 -57 -104.5 -123.5t-134 -134t-153.5 -134t-163 -124t-162 -103.5t-149 -73q-78 -28 -134 -28q-17 1 -32 3q-64 12 -96.5 55t-40.5 111z" />
<glyph unicode="P" horiz-adv-x="1406" d="M-526 -838.5q-4 21.5 16 43.5q162 182 270.5 341t198.5 316.5t178 330t205 380.5q70 123 145.5 256.5t164.5 259t193.5 235.5t229.5 183q47 29 99.5 50.5t106.5 29.5q29 4 58 4q25 0 51 -3q54 -7 105 -38q87 -53 115 -137q12 -36 12 -74q0 -50 -20 -102 q-51 -129 -143.5 -248t-209 -219t-249 -175t-261.5 -114q-4 0 -4 3t4 5q150 59 284 155.5t245 213.5q43 43 93 97.5t92 114.5t70.5 126t28.5 131q0 82 -44 122t-106 49q-23 3 -48 3q-40 0 -84 -9q-68 -15 -119 -46q-119 -72 -217 -176.5t-178 -214.5q-147 -205 -272.5 -421 t-250.5 -437q-66 -117 -119 -210t-101 -173t-94 -154t-98 -152.5t-112.5 -167t-136.5 -198.5q-16 -25 -38.5 -27t-39 11.5t-20.5 35z" />
<glyph unicode="Q" horiz-adv-x="1388" d="M38 396q7 69 37.5 134.5t77 124t95.5 109.5q70 61 147.5 129t155.5 128t150.5 107.5t132.5 69.5q38 13 68 13q19 0 35 -5q42 -14 58 -71q6 -10 -9 -17.5t-21 4.5q-24 29 -63 29q-15 0 -34 -5q-63 -16 -138 -64t-155.5 -119.5t-151.5 -142t-122 -130t-70 -86.5 q-35 -49 -62.5 -111.5t-31.5 -124.5q-1 -9 -1 -18q0 -53 22 -101q24 -56 94 -91q37 -18 76 -20q9 -1 18 -1q30 0 58 7q38 8 75 24t70 35q80 47 153.5 103t139.5 122q-10 18 -27 37.5t-33 42.5q-10 8 -2 19.5t21 7.5q25 -8 49 -22.5t43 -35.5q121 127 219 273q41 59 83 124.5 t58 135.5q12 51 21 105q7 38 7 76q0 16 -1 32q-8 94 -55 134t-123 62q-18 6 -28.5 18.5t-11.5 25t7 22.5t29 10h10q106 0 164 -41q61 -43 84 -112q18 -52 18 -115q0 -21 -2 -44q-8 -89 -35.5 -177t-66.5 -169t-78 -135q-49 -68 -110.5 -148.5t-133.5 -158.5 q18 -27 31.5 -55.5t28.5 -52.5q23 -41 44 -86t54 -76q35 -35 77 -47t74 -41q10 -12 9.5 -31.5t-17.5 -28.5q-26 -15 -52 -15l-30 5q-41 13 -77.5 42.5t-66.5 69.5t-46 71q-23 47 -42.5 93t-41.5 93q-57 -57 -119.5 -109.5t-129 -92.5t-137.5 -64.5t-142 -26.5h-14 q-95 0 -173 53q-82 56 -119 156q-23 59 -23 115q0 14 2 29z" />
<glyph unicode="R" horiz-adv-x="1286" d="M14 78q39 106 88.5 223t113 227.5t143.5 206t178 158.5q2 4 2 -2q-53 -104 -125 -199.5t-129 -199.5q-121 -211 -195 -433q-6 -18 -21.5 -24t-28.5 -2t-22.5 15t-3.5 30zM391 311q2 31 24.5 53.5t53.5 40t64.5 31t58.5 23.5q104 51 210.5 92t205.5 100q135 82 234 202 t134 277q11 45 11 83q0 57 -24 99q-40 70 -114.5 107t-168.5 44q-31 2 -60 2q-59 0 -113 -9q-16 -2 -30.5 12.5t-4.5 34.5q41 63 110 77q33 7 67 7q39 0 77 -8q74 -16 143.5 -54t112.5 -79q68 -66 80 -152q4 -30 4 -60q0 -57 -14 -116q-22 -90 -67.5 -173t-94.5 -142 q-72 -86 -155.5 -142.5t-176 -101.5t-186.5 -87t-184 -99q-45 -31 -67.5 -39t-20.5 -6t27.5 8t76.5 6q54 0 108 2h27q41 0 80 -4q94 -8 165.5 -39t139.5 -94q4 -4 0 -10.5t-12 0.5q-78 39 -163 50q-78 10 -158 10h-14q-87 -1 -176 -4q-16 -1 -31 -1q-73 0 -142 12 q-16 2 -26.5 17.5t-10.5 29.5z" />
<glyph unicode="S" horiz-adv-x="899" d="M41.5 58.5q-6.5 17.5 9.5 27.5q39 27 83 44t88 32.5t87 34t82 47.5q18 12 61.5 41.5t79.5 66.5q34 37 46 77q2 8 3 17q0 31 -34 58q-27 23 -56.5 40t-58.5 40q-37 27 -70.5 66.5t-55.5 86.5t-30 99q-3 20 -3 40q0 31 8 60q25 102 104.5 187t184.5 143q106 58 222 80 q59 11 114 11q54 0 104 -11q29 -10 16 -37q-29 -41 -54.5 -67.5t-70.5 -49.5q-10 -8 -15 2t5 16q57 29 80.5 46.5t22.5 26.5t-18.5 11t-41 1t-47 -4t-35.5 -5q-37 -10 -73 -19.5t-70 -23.5q-76 -27 -150 -67.5t-127 -100.5q-62 -74 -82 -164q-5 -23 -6 -46q0 -66 43 -130 q41 -61 86 -92t100 -74q76 -57 81 -119q1 -7 1 -15q1 -55 -35 -107q-40 -60 -113 -112t-154 -91t-159 -63q-72 -22 -120 -21h-8q-18 0 -24.5 17.5z" />
<glyph unicode="T" horiz-adv-x="1325" d="M-577.5 1111q4.5 17 18.5 28.5t35 5.5q29 -8 61.5 -14.5t63.5 -16.5q111 -19 227 -19q23 1 45 1q139 4 270 14q166 12 335 27.5t335 44.5q127 23 262 57.5t273 60.5q139 26 277 38q43 4 86 4q93 0 181 -17q14 -4 19.5 -13t3.5 -19.5t-10.5 -18.5t-18.5 -8 q-172 -18 -339 -32.5t-337 -51.5q-135 -25 -267 -53.5t-267 -43.5q6 -6 0 -18q-74 -125 -140.5 -255t-131 -261t-131 -260t-144.5 -250q-12 -18 -28.5 -20.5t-30 6t-18.5 24t7 31.5q74 119 136.5 253t129 267t142.5 257t178 224h-8q-98 -10 -204.5 -19t-214 -15.5 t-212 -10.5t-201.5 -4q68 -37 138.5 -67.5t135 -56t116.5 -45.5t81 -34q16 -6 37 -13t34 -14t13 -11.5t-24 0.5q-90 27 -205 64.5t-236.5 75.5t-237.5 71.5t-204 52.5q-23 4 -29 20.5t-1.5 33.5z" />
<glyph unicode="U" horiz-adv-x="1226" d="M26 288q12 58 40 115q43 94 102 187.5t130 177.5t153 158t172 129q10 8 18 -3.5t-4 -19.5q-68 -68 -135.5 -136.5t-129 -140t-116.5 -148.5t-98 -165q-18 -37 -40 -92t-24 -101v-5q0 -42 30 -66q17 -13 49 -12q29 0 69 10q88 23 169 58.5t152 89.5q137 104 247 232 t211 265t204.5 272.5t228.5 252.5q8 8 21.5 8t22.5 -8.5t12 -19.5t-5 -23q-78 -111 -157.5 -226.5t-151.5 -237.5t-129 -249t-90 -258q-4 -23 -12.5 -55.5t-12.5 -66.5q-2 -15 -2 -30q0 -18 3 -34q5 -30 28 -50q20 -16 47 -17t56.5 6t57 17.5t50.5 16.5q16 8 27.5 -10.5 t-5.5 -30.5q-50 -40 -110 -58q-41 -12 -77 -12q-18 0 -35 3q-52 9 -87 51q-33 40 -33 115v9q4 129 45 256t105 252q-84 -111 -172 -212t-188.5 -183t-214 -135t-244.5 -66q-15 -1 -29 -1q-59 1 -92 21q-40 26 -54 69q-7 24 -8 51q1 24 6 50z" />
<glyph unicode="V" horiz-adv-x="1232" d="M70 432q8 104 28.5 214t52 210t72.5 185t88 139q16 16 35 5t14 -32q-16 -51 -35.5 -100t-40 -98.5t-39 -99.5t-30.5 -103q-45 -186 -55 -383q0 -14 2 -57.5t7 -88.5t12 -78.5t16 -27.5q84 66 160.5 144.5t152.5 168.5t154.5 188.5t169.5 204.5q139 166 275 333t282 327 q23 25 54.5 53.5t65 52t65.5 36.5t54.5 7t34.5 -37q8 -21 8 -56q0 -17 -2 -38q0 -10 -9 -10t-9 10q-2 47 -19.5 58.5t-43 1t-54.5 -36t-56.5 -55t-49 -57.5t-31.5 -38q-72 -88 -142.5 -174t-142.5 -174q-162 -199 -324.5 -393.5t-336.5 -384.5q-12 -14 -38 -45t-56.5 -62.5 t-66.5 -61.5t-70 -42q-19 -7 -37 -7q-13 0 -27 4q-30 9 -47 54q-29 60 -39 150q-5 50 -5 105q0 43 3 89z" />
<glyph unicode="W" horiz-adv-x="1525" d="M52 306q20 66 45.5 127t37.5 91q63 158 138 308.5t135 310.5q8 23 27.5 29t38 0.5t28.5 -20.5t2 -38q-53 -131 -117.5 -256t-124.5 -254q-35 -82 -72.5 -165t-58.5 -169q-6 -20 -11 -50t-2 -52.5t17.5 -29.5t46.5 18q53 39 99.5 87t92.5 96t93 95t100 84q20 14 49 26.5 t53.5 13.5t41 -14.5t12.5 -54.5q-6 -61 -27.5 -119.5t-38.5 -117.5q-12 -49 -0.5 -48t52.5 23q41 27 79.5 51.5t73.5 53.5q125 94 235.5 203.5t217.5 224.5q127 133 245.5 254t245.5 254q51 55 117 117.5t135.5 124t141 115.5t137.5 93q6 6 12 -1t0 -11 q-143 -129 -297 -280.5t-283 -295.5q-143 -158 -286.5 -311t-292.5 -303q-51 -49 -109.5 -109.5t-124 -115.5t-135 -99.5t-141.5 -62.5q-22 -5 -39 -5q-23 0 -37 10q-22 16 -26 48q-1 9 0 18q0 25 6 54q10 39 20 70q27 72 43 145q2 12 -13.5 6t-34.5 -19.5t-37.5 -27.5 t-20.5 -16q-53 -53 -105.5 -108.5t-105.5 -108.5q-25 -25 -55.5 -57t-64.5 -53.5t-70 -24.5h-6l-66 28q-36 30 -36 88q-1 60 20 130z" />
<glyph unicode="X" horiz-adv-x="1368" d="M24 99.5q-10 13.5 5 29.5q104 119 178 267.5t133 295.5q76 182 134 363.5t75 378.5q2 16 14 26t26.5 12.5t27 -5t16.5 -25.5q31 -162 76 -316.5t110 -302.5q141 158 275.5 328t220.5 362q8 18 24.5 21.5t31.5 -2.5t24.5 -20.5t3.5 -32.5q-37 -98 -101.5 -185.5 t-128.5 -169.5q-78 -98 -154.5 -191t-162.5 -188q37 -74 80 -146.5t94 -139.5q86 -117 178 -225.5t178 -227.5q2 -8 -6 -8q-188 129 -335.5 300t-256.5 376q-104 -117 -214.5 -224.5t-229.5 -203.5q-66 -51 -134.5 -99.5t-148.5 -58.5q-23 -2 -33 11.5zM111 158 q72 35 139.5 93t122.5 109q98 90 191 185.5t186 197.5q-59 123 -102.5 253t-69.5 266q-49 -139 -97.5 -282.5t-102.5 -285t-119.5 -277.5t-147.5 -259z" />
<glyph unicode="Y" horiz-adv-x="1277" d="M-182 -678q-4 14 6 29q72 98 185.5 214t241.5 234.5t256 235.5t230 219q137 137 273.5 275.5t271.5 279.5q53 57 103.5 116.5t101.5 118.5q66 80 139.5 161t134.5 169q-193 -223 -419 -414.5t-472 -343.5q-35 -23 -87 -54.5t-112.5 -63t-125 -59t-127.5 -41.5 q-44 -9 -85 -9q-18 0 -36 2q-57 6 -100 41q-33 29 -37 72q-1 10 -1 19q0 35 11 73q14 49 44 101.5t62.5 100.5t65.5 88t55 66q74 84 153 171t163 171t172 160t184 139q10 6 19.5 4t15.5 -10t7 -17t-7 -18q-23 -20 -78 -73.5t-130 -127t-162 -162.5t-171 -180t-156.5 -179.5 t-119.5 -161t-61 -123.5q-3 -14 -3 -26q0 -30 25 -42q45 -23 101 -23h19q66 5 138 29.5t144.5 64.5t139 83t123 84t97.5 69q121 88 232.5 185.5t218 199t211 206t212.5 208.5q10 14 23.5 4t5.5 -26q-109 -190 -237 -363.5t-267 -336.5t-287.5 -318.5t-298.5 -311.5 q-115 -119 -196.5 -200.5t-148 -146t-124 -119t-124 -118t-148.5 -145.5t-197 -198q-12 -12 -27.5 -12.5t-25.5 8t-14 22.5z" />
<glyph unicode="Z" horiz-adv-x="1628" d="M53 192q43 58 114 122.5t141.5 119.5t125.5 95t70 51q141 100 283.5 198.5t273.5 214.5q45 35 86 73t76 85q20 25 24 41t-4 27.5t-27.5 19.5t-46.5 18q-291 102 -600 121q-61 4 -129 8q-11 1 -22 0q-57 0 -107 -16q-18 -4 -45.5 -16.5t-42 -30.5t-3.5 -44t71 -58 q37 -20 73.5 -35t71.5 -35q4 -2 3 -6t-7 -2q-23 8 -59.5 18t-74.5 24.5t-71.5 33t-50.5 41.5q-26 33 -26 73v10q4 46 45 80q33 29 92 43.5t127 18.5q34 2 69 2t70 -2q70 -4 127 -12q33 -4 104.5 -13.5t155.5 -27t168 -43t141.5 -63.5t74.5 -88q5 -13 5 -28q0 -40 -35 -88 q-43 -59 -99 -112.5t-116.5 -101.5t-124 -92t-123.5 -87q-143 -109 -293.5 -210t-285.5 -224q-29 -25 -61.5 -58.5t-46.5 -61.5q-16 -28 0 -44q10 -10 41 -10q19 0 46 4q100 10 203 33.5t203 46.5q109 25 233.5 58.5t260 61t277.5 37.5q48 3 96 3q96 0 192 -13 q12 -8 11 -22.5t-17 -14.5q-47 1 -92 1q-114 0 -220 -7q-148 -10 -295 -63q-117 -43 -236.5 -81t-242.5 -67q-59 -14 -125.5 -31.5t-135.5 -29.5q-69 -13 -137 -17q-16 -1 -32 -1q-51 0 -98 12q-67 16 -67 59t44 102z" />
<glyph unicode="a" horiz-adv-x="835" d="M37 217q6 64 48 131.5t108.5 131t140.5 111.5q74 49 142 73q49 17 87 17q15 0 29 -3q51 -12 61.5 -39t-6 -61.5t-53.5 -72.5t-79 -71t-82.5 -57.5t-65.5 -30.5q-4 0 -6.5 4t1.5 4q14 0 41 21.5t59 53.5t61.5 67.5t47 66.5t17.5 50.5t-29 17.5q-12 0 -34.5 -9.5t-47 -22.5 t-51.5 -29.5t-47 -30.5q-25 -20 -75 -64.5t-96 -97.5t-72 -109q-14 -29 -15 -54q0 -23 12 -44q19 -35 63 -38h11q40 0 91 18q58 20 124.5 60t132.5 89t123 104.5t96 108.5q8 10 20.5 11t20.5 -4t10 -14t-6 -18q-29 -33 -65.5 -70.5t-74.5 -75.5t-73 -76t-57 -70 q-37 -55 -41 -99v-10q0 -38 30 -52q16 -8 41 -7q29 -1 69 9q77 18 202 87q10 6 22.5 2t8.5 -12q-18 -33 -71.5 -65t-117.5 -54q-62 -21 -122 -26q-11 -1 -22 -1q-43 0 -67 17q-8 6 -19 19t-19.5 34.5t-7.5 52.5t18 72q-6 -6 -15.5 -8t-13.5 -4q-37 -23 -81 -45.5t-90 -34.5 q-31 -8 -62 -7q-15 -1 -29 1q-45 6 -82 42q-44 42 -44 97q0 7 1 14z" />
<glyph unicode="b" horiz-adv-x="1011" d="M45 -24.5q4 14.5 15.5 24.5t29.5 6q36 -6 72 -6t72 6q72 12 140 42t130.5 69t118.5 80q45 31 86 64.5t75 74.5q6 4 25.5 31.5t35 58.5t18.5 55.5t-27 24.5q-74 -4 -146 -26.5t-141.5 -55.5t-136 -70t-129.5 -67q-12 -4 -22.5 0t-16.5 11t-6 17.5t10 20.5 q125 117 241.5 237.5t234.5 239.5t240 235t255 222q25 23 34 10.5t-22 -47.5q-66 -68 -159 -163t-200.5 -204.5t-222 -223.5t-221.5 -216q74 33 158 67.5t156 52.5q50 12 89 12q18 0 34 -3q50 -8 57 -59v-13q0 -45 -24 -91q-28 -52 -69 -98t-89 -85t-85 -66 q-63 -47 -131.5 -90t-142.5 -73q-75 -32 -153 -46q-46 -9 -93 -8q-32 0 -65 4q-16 2 -22.5 16.5t-2.5 29z" />
<glyph unicode="c" horiz-adv-x="811" d="M32 90q-8 16 -8 36q0 25 13 58q47 123 143 214t209 151q59 35 115 47q25 5 46 6q27 0 50 -9q42 -15 62 -60q15 -32 14 -83q0 -20 -2 -42q0 -4 -5 -4.5t-10 4.5q-6 68 -28.5 97.5t-56.5 33.5q-7 1 -13 1q-28 0 -61 -14q-41 -16 -82 -41.5t-79 -56.5t-65 -53 q-16 -12 -53 -52t-69.5 -85t-46 -85t17.5 -53q36 -10 76 -10q10 0 20 1q51 3 103.5 12.5t103.5 22.5t98 24q29 6 70 16t82 15q20 2 40 2.5t39 -2.5q38 -5 60 -31q10 -10 5 -18.5t-15 -12.5q-137 -14 -270.5 -44t-268.5 -50q-29 -5 -64 -5q-12 0 -24 1q-49 2 -88.5 18 t-57.5 51z" />
<glyph unicode="d" horiz-adv-x="1198" d="M57 140.5q0 54.5 33 115.5q39 76 95.5 128t122.5 74q43 15 88 16q24 0 50 -5q74 -12 146 -63q4 -4 1 -10.5t-7 -2.5q-60 26 -123 26q-33 1 -67 -7q-98 -20 -165 -99q-16 -16 -36.5 -40.5t-36 -54.5t-21.5 -60.5t4 -57.5q13 -34 53 -34h4q42 2 97 24.5t118.5 59t119 74.5 t97.5 70t56 42q74 59 149.5 120.5t149.5 129.5q139 199 303 394.5t348 360.5q8 8 19.5 18.5t24 17.5t26.5 8t27 -7q6 -4 6 -14q0 -18 -24 -60q-36 -62 -102.5 -150.5t-151.5 -189t-166 -188.5t-147.5 -148.5t-92.5 -68.5q-51 -78 -80 -162q-16 -47 -16 -77q0 -7 1 -14 q5 -32 29.5 -48t65.5 -22t90 -7q20 -4 23 -24.5t-17 -28.5q-16 -4 -30.5 -9t-28.5 -7q-34 -4 -62 -4q-44 0 -74 10q-48 16 -68 53q-14 27 -15 62q1 13 3 28q8 53 29 115q-70 -66 -144.5 -131.5t-153.5 -122.5t-162 -102t-169 -66q-36 -9 -67 -9q-27 0 -49 7q-48 14 -75.5 50 t-27.5 90.5z" />
<glyph unicode="e" horiz-adv-x="737" d="M70 162q-4 13 -4 28q0 34 18 74q26 58 76.5 117t119 114.5t142.5 94.5t146 54q31 6 60 6q38 0 72 -11q27 -10 41.5 -32.5t16.5 -50.5t-5.5 -56.5t-23.5 -48.5q-41 -66 -116.5 -97.5t-151.5 -48.5q-23 0 -57 -3q-17 -2 -34.5 -2t-35.5 2q-35 3 -65.5 12.5t-45.5 33.5 q-35 -41 -61 -95q-17 -34 -18 -63q0 -16 6 -30q18 -45 71 -64.5t119 -23.5q24 -1 47 -1q41 0 81 4q62 7 99 15q2 0 2 -5t-2 -5q-47 -20 -122.5 -42t-152.5 -22t-139.5 31t-82.5 115zM295 410q31 -14 76 -22q31 -6 63 -7q15 0 31 2q49 4 98 24.5t86 63.5q23 25 27 47.5 t-5 35.5t-31 17t-48 -4q-49 -14 -92 -36.5t-84 -45.5q-31 -16 -61.5 -34.5t-59.5 -40.5z" />
<glyph unicode="f" horiz-adv-x="845" d="M-454 -925q-2 10 -2 21q0 40 22 104q28 83 86.5 185.5t141.5 216t181.5 216t209 185.5t223.5 124q88 143 196.5 306t227 318.5t245.5 290t255 222.5t253 113q36 7 72 7q87 0 170 -43q8 -4 3 -12t-11 -6q-65 23 -129 23q-54 0 -108 -16q-118 -36 -230.5 -122t-216 -204.5 t-192.5 -243.5t-161.5 -241t-122.5 -191q-29 -45 -56.5 -85t-53.5 -81q17 1 34 1q59 0 117 -15q74 -21 146 -74q16 -14 16 -22.5t-10 -11.5t-27.5 1t-36.5 14q-68 43 -144 49q-14 1 -29 1q-60 0 -119 -19q-86 -137 -173 -273.5t-182 -267.5q-78 -106 -173 -218.5 t-208 -198.5q-102 -78 -154 -86q-9 -2 -16 -2q-37 0 -44 35zM-340 -800q10 -3 33.5 11.5t50.5 37t43 38.5q115 104 206 226t183 249q29 45 67 105.5t85 134.5q-102 -63 -197.5 -154.5t-173.5 -183.5t-134 -174t-81 -127q-18 -29 -38.5 -58.5t-37.5 -64.5q-16 -37 -6 -40z " />
<glyph unicode="g" horiz-adv-x="686" d="M-461 -1053q82 147 163 297t168 298.5t187.5 293t221.5 281.5q-12 -1 -23 -1q-34 0 -65 13q-41 18 -64 59q-27 48 -27 101q0 12 2 24q7 66 41.5 123.5t88 99.5t110.5 56q23 6 46 6q33 0 64 -12q54 -20 91 -88q6 -6 -2.5 -14.5t-16.5 1.5q-65 54 -123 54q-6 0 -12 -1 q-63 -6 -108 -45.5t-68 -98.5q-16 -41 -16 -77q0 -15 3 -29q9 -48 54 -70q18 -9 43 -9q39 0 94 20q74 74 158 147t178 116q23 10 34 -9.5t5 -40.5q-12 -27 -42 -61.5t-71 -70.5t-90 -71.5t-100 -62.5q-10 -10 -20.5 -21.5t-24.5 -19.5q-252 -260 -436.5 -557t-337.5 -631 l37 4q18 0 24 -15t-4 -26q-20 -27 -54 -42q-30 -13 -56 -13h-7q-28 2 -44 23q-8 12 -8 30q0 17 7 39z" />
<glyph unicode="h" horiz-adv-x="894" d="M-30 42q-3 13 5 28q37 55 85.5 110.5t105.5 104.5q182 209 358 418t381 397q8 4 20.5 12t21.5 12t10 -1t-15 -25q-86 -102 -149.5 -183t-119 -152t-108.5 -136.5t-119 -139.5q31 16 61 32t60 30q37 18 90.5 38.5t108.5 32.5q41 9 79 8q13 0 27 -1q50 -4 80 -35 q18 -18 5 -55t-44.5 -82t-74.5 -95.5t-85 -97.5t-76 -86t-46 -61q-12 -20 -21.5 -34.5t-8.5 -25t13.5 -17.5t40.5 -13q8 -4 10.5 -15.5t-8.5 -15.5q-18 -8 -41.5 -14.5t-45 -4.5t-38 17.5t-16.5 52.5v9q0 41 33 81q37 45 92 98.5t116.5 117t110.5 145.5q17 29 17 47 q-1 11 -7 17q-16 18 -49.5 18t-72.5 -10.5t-58 -18.5q-104 -41 -205.5 -98.5t-193.5 -131.5q-66 -76 -134.5 -148.5t-135.5 -145.5q-10 -12 -22.5 -11.5t-23 8t-13.5 20.5z" />
<glyph unicode="i" horiz-adv-x="505" d="M51 6q25 76 59.5 160t78.5 164t97.5 151.5t119.5 120.5q16 14 34.5 3t5.5 -36q-51 -80 -104 -154.5t-100 -158.5q-37 -68 -76 -135.5t-92 -126.5q-4 -10 -15.5 -4t-7.5 16zM530 793q-1 10 -1 20q1 49 17 105q20 68 66 100q14 8 27.5 6t24.5 -12q16 -12 27.5 -24t17.5 -30 q10 -23 -3.5 -37t-33.5 -6q-8 6 -17 7q-6 -12 -16 -25.5t-18 -26.5q-14 -23 -27.5 -44t-34.5 -44q-8 -10 -18.5 -5t-10.5 16z" />
<glyph unicode="j" horiz-adv-x="538" d="M-614 -616q6 51 31.5 105t56.5 83q14 10 22 5t8 -21q-4 -25 -13 -51.5t-14 -50t-1 -45t26 -38.5q7 -1 14 -1l142 56q78 60 157 160.5t159.5 230.5t163.5 263t168 256t175 213q-74 -19 -156 -19q-26 0 -53 2q-12 0 -12 13.5t12 11.5q28 -3 57 -3q34 0 68 4q64 7 121 30 q39 35 80 64.5t88 56.5q16 4 25.5 -6.5t-2.5 -20.5q-8 -8 -17.5 -16.5t-17.5 -14.5q-2 -4 -9.5 -11t-15.5 -17q-53 -47 -99 -101.5t-89 -111.5q-113 -135 -203 -267.5t-167 -252t-145.5 -223t-139 -183.5t-148.5 -133t-174 -72q-16 -3 -29 -3q-38 0 -54 24q-17 26 -17 62 q0 11 2 22zM592 827q0 57 18.5 123t65.5 99q14 10 27.5 8t25.5 -10q33 -27 43 -54q10 -23 -4 -37t-37 -4q-6 0 -12 4q-8 -14 -17.5 -26t-17.5 -25q-14 -25 -27.5 -46t-33.5 -44q-6 -10 -18.5 -4t-12.5 16z" />
<glyph unicode="k" horiz-adv-x="1142" d="M142 94q16 60 73 131q129 147 272.5 295t291 286t291.5 261t273 219q23 18 35.5 18.5t16.5 -7t3 -17.5t-3 -12q-82 -61 -191.5 -159.5t-229.5 -215.5t-239 -242t-220 -238.5t-175 -206.5t-102 -145q-20 -37 -6 -29.5t53 41t97 88t128 112t144.5 109.5t145 84t132.5 35h7 q56 0 97 -40q19 -20 19 -42q-1 -15 -9 -30q-20 -39 -66 -80t-104.5 -82t-100.5 -73.5t-56 -57t26 -35.5q22 -6 45 -6q22 -1 44 5q46 12 91.5 33.5t90.5 46t86 38.5q25 12 15.5 -5t-25.5 -34q-33 -39 -90.5 -75.5t-123.5 -61.5t-130 -29h-15q-55 0 -96 25q-29 14 -40 35.5 t-10 45t14 46t36 41.5q16 12 63.5 43t99.5 65.5t97 69.5t59.5 55.5t-14.5 21.5h-2q-30 0 -125 -32q-61 -37 -117.5 -78t-109.5 -86t-106.5 -90t-110.5 -88q-91 -66 -147 -73q-10 -1 -18 -1q-42 0 -60 27q-12 19 -12 46q1 22 8 48z" />
<glyph unicode="l" horiz-adv-x="987" d="M54 20q12 33 39.5 69t45.5 61q43 55 105.5 135t167 202.5t260.5 296.5t383 420q4 6 4 -14.5t-4 -26.5q-137 -172 -241.5 -298t-187.5 -220t-146.5 -168t-118 -142.5t-105.5 -141t-106 -164.5q29 4 57.5 9t56.5 15q94 27 183.5 63t176.5 75.5t175 79.5t178 73 q18 6 22.5 -10.5t-6.5 -24.5q-86 -59 -192.5 -121.5t-220 -115t-229 -89t-224.5 -42.5h-9q-52 -1 -64 21q-12 24 0 58z" />
<glyph unicode="m" horiz-adv-x="1613" d="M7 1q-11 11 5 46q29 55 92.5 131t145.5 155t175 150.5t181 118.5q88 46 162 60q20 4 37 5q49 0 82 -28q24 -21 24 -55q-1 -10 -3 -22q-10 -50 -36 -110.5t-62 -124t-62.5 -115.5t-33.5 -86t23 -36q25 0 64 30t80 70.5t77.5 80.5t55.5 61q16 18 52 55t83 76t101.5 77 t105.5 62.5t96 26.5h6q41 0 68 -27q23 -22 29 -54q4 -20 4 -42q1 -12 -1 -25q-4 -35 -14 -67.5t-18 -57.5q-14 -47 -30.5 -94t-31.5 -94q-6 -35 -10 -57.5t3 -30.5t26.5 0t58.5 37q14 12 23.5 -3.5t5.5 -25.5q-10 -23 -36 -40t-56.5 -24.5t-61.5 -1t-53 28.5q-23 20 -25 52 v14q-1 26 5 52q8 34 20 66.5t20 55.5l36 94t28 94q8 39 -20 41h-4q-27 0 -69 -20q-46 -22 -100.5 -64.5t-97.5 -89.5q-37 -41 -83 -92t-97 -98t-108.5 -83t-116.5 -46q-38 -7 -66 -7q-26 0 -42 6q-34 14 -41 44q-2 9 -2 19q-1 24 11 55q16 44 42 94.5t56.5 101.5t55.5 96 t36 78t-1 47q-22 26 -54 26q-17 1 -37 -7q-58 -20 -127 -75.5t-141.5 -132.5t-134 -146.5t-103.5 -120t-50 -54.5q-25 -18 -56.5 -34.5t-55.5 -21.5t-35 6z" />
<glyph unicode="n" horiz-adv-x="1071" d="M57 5q-4 13 4 28q25 49 43.5 81.5t37 62.5t41 62.5t59.5 79.5q20 29 42.5 46.5t38 21.5t19.5 -7t-10 -40q-16 -35 -34.5 -55.5t-33.5 -51.5q51 66 110.5 125.5t135.5 122.5q25 18 74 55t106.5 67t113.5 41q16 3 30 3q37 0 65 -20q39 -31 51 -71q7 -24 6 -49q0 -16 -2 -33 q-8 -42 -30.5 -82t-49.5 -73q-23 -29 -48 -56t-48.5 -57t-39 -61.5t-17.5 -64.5q0 -35 40 -20.5t91 50t100 77.5t66 67q6 10 13 7t12.5 -12t5.5 -21.5t-7 -20.5q-16 -23 -46.5 -55.5t-69.5 -66.5t-83 -63.5t-86 -43.5q-29 -9 -57 -9q-12 0 -24 2q-39 6 -66 43q-16 21 -16 46 q0 14 6 30q14 43 45 89t69 89t60 74q18 27 45 69t41 77.5t7 55t-58 1.5q-80 -23 -149.5 -73t-133.5 -103q-109 -92 -206 -187.5t-197 -193.5q-12 -14 -26.5 -14.5t-25 9t-14.5 22.5z" />
<glyph unicode="o" horiz-adv-x="729" d="M74 252q10 55 32 102q29 59 73 108.5t104 86.5q25 16 56.5 32.5t65 28t67.5 11.5t60 -19q12 -8 15.5 -26.5t-15.5 -26.5q-35 -4 -72.5 -8t-76.5 -20.5t-78 -49.5t-76 -92q-14 -20 -31.5 -53t-27.5 -68q-9 -32 -10 -62q0 -2 1 -6q1 -34 23 -57q44 -43 96 -49l24 -2 q40 0 78 16q50 20 95 60.5t81 86.5t57.5 92t23.5 81q3 38 3 62q0 30 -13 59q-14 27 -29.5 13.5t-29 -43.5t-22.5 -64t-9 -46q0 -4 -13.5 -3t-17.5 5q-2 19 -2 39q0 15 1 30q3 36 15 64q12 30 36 44q13 8 31 7q15 0 34 -5q37 -8 54 -33t21 -55q2 -14 2 -28q0 -18 -3 -37 q-5 -34 -15 -60q-25 -76 -68 -145.5t-102 -121.5q-59 -50 -133 -76q-50 -17 -106 -18q-26 0 -54 4q-66 10 -99.5 48t-45.5 88q-6 26 -6 55q1 25 6 51z" />
<glyph unicode="p" horiz-adv-x="890" d="M-605 -939q-1 15 13 28h-2l64 53q47 53 85.5 117.5t77.5 117.5q2 4 6.5 2t4.5 -6q-20 -35 -42 -68.5t-42 -68.5q119 117 225 242t209 258q59 76 116.5 156.5t115 161.5t117.5 160t126 153q4 4 10 -1.5t2 -9.5q-86 -193 -211 -373t-252 -348q-127 -162 -265 -314 t-292 -288q-16 -14 -31.5 -12t-24.5 13.5t-10 26.5zM-50 -73.5q5 12.5 18.5 37t23.5 42.5v2q31 49 81 131t114.5 170t139 172t154.5 138.5t163 67.5q16 3 33 3q65 0 128 -43q55 -37 75 -91q16 -45 16 -92q0 -10 -1 -20q-4 -57 -24.5 -109t-45.5 -85q-20 -29 -63 -75 t-106.5 -94t-146.5 -90t-183 -63q-16 -4 -24.5 11.5t1.5 23.5q37 25 106.5 62.5t143.5 90t138.5 118t90.5 145.5q10 35 16 76q4 21 4 41q0 19 -3 36q-6 37 -28.5 65t-68.5 36q-19 4 -39 4q-43 0 -89 -19q-68 -26 -131.5 -71t-116.5 -100.5t-86 -100.5q-100 -150 -160 -239 t-90.5 -133t-37.5 -52t-2 4.5z" />
<glyph unicode="q" horiz-adv-x="825" d="M-657.5 -858.5q6.5 24.5 43.5 45.5q68 39 137 59.5t141 30.5t144.5 16.5t144.5 16.5q-16 4 -31.5 7t-30.5 9q-27 10 -38 34t4 46q37 63 76.5 121.5t84.5 116t99.5 116t122.5 123.5q72 57 134 124t124 136q-18 -10 -57.5 -25.5t-86.5 -31.5t-98 -28.5t-95 -14.5h-12 q-36 0 -63 11q-31 12 -39 46q-5 16 -5 35q0 30 14 65q22 58 68 112.5t109.5 99.5t132.5 64q40 12 80 12q28 0 56 -6q68 -13 121 -74q8 -10 1.5 -19.5t-14.5 -5.5q-41 29 -95 34q-16 2 -33 2q-38 0 -76 -9q-54 -11 -104 -36.5t-86 -61.5t-50 -76q-6 -18 -6 -36q0 -24 10 -48 q28 -22 70 -22q25 0 56 8q81 22 170 76t174 129t140 149q16 12 19 26q8 4 10 8t6 9q8 16 18.5 28t18.5 25q12 18 30.5 20t33 -5t20.5 -23.5t-6 -34.5q-6 -8 -10.5 -12.5t-6.5 -10.5q-57 -82 -127.5 -165t-146.5 -163.5t-153.5 -156.5t-147.5 -143q-43 -39 -93 -89.5 t-98.5 -104.5t-91.5 -107.5t-71.5 -97.5t-37.5 -75.5t9 -40.5q24 -43 62 -43h3q41 2 88.5 20.5t95.5 39.5q40 19 75 19q6 0 12 -1q16 -4 28.5 -16t17.5 -27.5t-1 -29t-25 -17.5q-139 -35 -259 -49t-225.5 -30.5t-198.5 -47.5t-179 -96q-28 -22 -53 -22h-6q-27 3 -40.5 20.5 t-7 42z" />
<glyph unicode="r" horiz-adv-x="595" d="M27 53q33 66 81 119t85 115q35 59 66.5 126.5t53.5 135.5q8 31 17.5 65.5t23 63.5t33 49.5t49.5 24.5q27 4 57.5 -1.5t60.5 -20.5t53.5 -40.5t33.5 -60.5q7 -23 7 -40q0 -27 -18 -39q-26 -18 -62 -18h-7q-2 0 -2 6.5v10.5q29 8 35 21.5t-1 28.5t-23.5 28.5t-30.5 19.5 q-12 2 -28.5 8.5t-34 7.5t-32 -5.5t-20.5 -24.5q-23 -55 -39 -109.5t-39 -107.5q-25 -53 -54.5 -115.5t-66.5 -121t-80 -105.5t-92 -68q-16 -10 -25.5 9.5t-0.5 37.5z" />
<glyph unicode="s" horiz-adv-x="647" d="M-3 -9.5q3 15.5 13 27.5q47 47 105.5 69t122.5 46q16 4 60 24.5t81 49.5t51 59q3 7 3 15q0 21 -32 38q-41 23 -71 49q-28 27 -44 59q-13 27 -13 58v12q3 38 32 83q23 37 60.5 69.5t82.5 56.5q46 22 95 32q23 4 45 5q25 0 49 -6q41 -10 60.5 -29.5t22.5 -44t-10 -52 t-38 -54.5q-12 -14 -23.5 -4t-1.5 25q20 29 20.5 48t-14 28.5t-39 9.5t-53.5 -7q-47 -12 -94 -35.5t-74 -64.5q-32 -48 -31 -74v-5q4 -26 25 -43t51.5 -33.5t50.5 -47.5q17 -30 19 -62v-6q0 -30 -10 -58q-12 -32 -32 -59.5t-40 -45.5q-35 -31 -74 -47.5t-81 -28.5 t-81.5 -25.5t-74.5 -35.5q14 -14 12 -33t-27 -25q-37 -10 -57 -4t-41 35q-8 16 -5 31.5z" />
<glyph unicode="t" horiz-adv-x="868" d="M29 6q-6 14 4 33q25 39 47 93t48 107.5t58.5 98.5t79.5 68q35 16 70 20q98 111 172 196t132 151.5t105.5 120.5t92.5 103.5t91 97.5t103 103q12 16 30.5 4t8.5 -33q-139 -199 -294.5 -381t-315.5 -362q82 -12 164 -30q40 -9 82 -8q43 0 86 9q27 4 40 -5t-10 -25 q-47 -31 -93 -41q-39 -9 -77 -9h-15q-46 2 -94 12.5t-100 18.5q-12 4 -22 5t-21 3q-78 -90 -150.5 -178t-144.5 -180q-12 -16 -28.5 -19.5t-29.5 5t-19 22.5z" />
<glyph unicode="u" horiz-adv-x="964" d="M80 234q2 58 26.5 118t61.5 108t81 79.5t85 35.5q10 0 10 -11t-4 -15q-20 -14 -46 -45t-49.5 -70t-42 -84t-24.5 -90q-2 -15 -2 -30q0 -28 8 -55q12 -40 47 -69q20 -18 46 -19q12 1 25 5q42 12 75 33q92 47 171 111.5t157 132.5q41 37 86 73.5t98 55.5q16 10 30.5 -4.5 t14.5 -32.5v-15q0 -46 -10 -88q-12 -48 -33 -93.5t-47.5 -89.5t-52.5 -89q10 4 19 3t17 3q18 4 34 -10t3 -29q-36 -49 -72 -63q-16 -6 -34 -7q-25 0 -56 11q-20 6 -29 25.5t3 39.5q23 41 50.5 81t52 80t44 83t29.5 92q-43 -25 -84 -59.5t-80 -72.5t-79 -74.5t-79 -63.5 q-35 -25 -75.5 -50.5t-85.5 -43t-91 -19.5h-6q-42 0 -79 23q-63 35 -89 88q-24 49 -24 103v8z" />
<glyph unicode="v" horiz-adv-x="929" d="M106 286q6 76 22.5 151t43 139.5t53.5 97.5q8 10 20.5 12t25 -2t18.5 -14.5t2 -24.5q-18 -49 -40 -106.5t-36 -118.5q-13 -60 -19 -119q-1 -14 -2 -29q0 -44 13 -84q12 -39 44 -42h10q27 0 61 14q40 16 84.5 48t83 65.5t67.5 61t39 38.5q29 29 67.5 70.5t83 88t94.5 89.5 t101 75q50 30 102 44q24 6 49 7q26 0 52 -8q16 -2 21 -20.5t-15 -24.5q-139 -66 -246.5 -150.5t-220.5 -197.5q-39 -41 -81 -84t-88 -83t-97 -70.5t-109 -45.5q-37 -10 -67 -10q-36 0 -61 15q-45 28 -63 84q-13 43 -14 98z" />
<glyph unicode="w" horiz-adv-x="1347" d="M115 168q0 43 17.5 100.5t50 119t82.5 121.5t118 109q12 4 22.5 -8t2.5 -24q-111 -135 -159 -216t-50 -118t33.5 -37t95 27.5t131 78t143.5 111.5q32 29 54 29q6 0 10 -2q24 -10 32 -43q3 -15 3 -31q1 -21 -5 -46q-10 -44 -32 -75q-47 -63 -52.5 -92t14 -33t59.5 13.5 t84 44t87 59.5t70 61q80 84 142 143.5t120.5 102.5t117 75t130.5 60q20 8 31.5 3t9.5 -18t-20.5 -32.5t-55.5 -38.5q-74 -37 -120 -73.5t-91 -82.5t-103.5 -106.5t-156.5 -144.5q-43 -35 -85 -67t-87 -54q-44 -23 -94 -34q-29 -6 -60 -6q-23 0 -47 3q-18 4 -33.5 18.5 t-5.5 32.5q6 16 24.5 60.5t40 90.5t39.5 81l17 35q-8 -12 -52 -44t-103.5 -71t-125.5 -75q-66 -35 -122 -53q-39 -12 -68 -13q-12 1 -22 3q-31 7 -31 46v10z" />
<glyph unicode="x" horiz-adv-x="915" d="M54.5 -20.5q-5.5 12.5 0.5 16.5q88 137 146.5 306t93.5 382q2 27 29.5 35t50.5 -4q92 -49 145 -127t94 -176q29 57 49.5 114.5t61.5 104.5q16 20 36.5 9t22.5 -34v-10q0 -56 -39 -120q-43 -70 -102 -136q47 -88 98 -161.5t125 -149.5q4 -6 2 -15.5t-12 -9.5 q-57 0 -100 20.5t-77 54.5t-61.5 80t-52.5 97q-16 -18 -34.5 -34.5t-32.5 -26.5q-47 -39 -96.5 -78t-102.5 -70t-109.5 -52.5t-117.5 -27.5q-12 0 -17.5 12.5zM121 10q41 12 82 26.5t76 37.5q72 51 138 110.5t122 126.5q-37 80 -77 156t-97 123q-59 -96 -96.5 -205 t-80.5 -213q-4 -4 -16 -30.5t-25.5 -56.5t-21.5 -53.5t-4 -21.5z" />
<glyph unicode="y" horiz-adv-x="921" d="M-953 -1046v15q0 63 23 129q27 73 70 142.5t72 122.5q2 4 10 1t6 -9l-28.5 -57t-38 -83t-35 -96.5t-20.5 -95.5q-2 -15 -2 -29q0 -28 7 -52q10 -36 43 -54q49 -27 112 -27q10 0 20 1q75 5 126 38q205 129 366 276.5t302 308.5t276.5 337t288.5 364q-53 -49 -108.5 -91 t-112.5 -66.5t-116 -29.5q-11 -1 -21 -1q-50 0 -101 20q-66 27 -90 72q-20 37 -20 81q0 9 1 19q5 54 32.5 113t64.5 116.5t79 109t75 87.5q16 18 36.5 9t8.5 -29q-35 -61 -80 -118.5t-80 -125.5q-45 -87 -45 -146q0 -13 2 -24q12 -65 64 -90q31 -14 71 -14q26 0 57 6 q76 16 148 76q47 39 95 83t96.5 89t98.5 85t103 70q23 12 42.5 -5t6.5 -40q-170 -225 -343 -440t-357 -430q-80 -90 -162 -183.5t-169 -181.5t-181 -168.5t-199 -144.5q-43 -27 -97 -55.5t-112 -44.5q-44 -11 -86 -11q-15 0 -30 1q-58 6 -105 47q-61 53 -64 123z" />
<glyph unicode="z" horiz-adv-x="931" d="M58 100q-4 13 -4 25q0 40 36 80q53 63 128 113.5t161 104.5t175 119.5t171 157.5q-53 20 -113 30q-28 4 -55 4q-33 0 -65 -6q-60 -11 -114 -43t-95 -89q-12 -12 -28.5 -9t-23.5 19q-14 34 -14 61q0 26 13 47q26 42 82 64q56 23 132 29q41 3 83 3q34 0 68 -2 q75 -5 137.5 -18.5t90.5 -27.5q16 -8 22.5 -30.5t-3.5 -33.5q-43 -66 -108.5 -113.5t-123.5 -88.5q-90 -66 -178 -129.5t-174 -135.5q-25 -23 -54.5 -48t-41.5 -58q30 -1 58 -13q19 -8 47 -8q13 0 28 2q80 8 160 30q81 22 163 33q40 5 80 5q42 0 85 -6q83 -12 169 -68 q12 -8 7 -26.5t-27 -10.5q-68 25 -134 26h-11l-119 -9q-66 -10 -131.5 -27.5t-131 -30t-131.5 -15.5h-17q-58 0 -116 18q-68 23 -83 75z" />
<glyph unicode="{" horiz-adv-x="765" d="M0 -207q0 31 34 70t81 81t98 85t86 82q37 37 62.5 81t42 92t25.5 95t15 90q0 57 -13 105.5t-36 91.5q-35 -14 -86 -15q-14 0 -34.5 2t-39 5.5t-30.5 9.5t-12 14q0 14 13 29.5t30 15.5q6 0 10 -2q39 -10 74.5 -15t41.5 -5h-2l9 4q-33 47 -72 82q51 -29 94 -78q10 4 13.5 7 t7.5 3q4 2 5 5t11 7l-2 -2q14 14 15 15.5l5 7.5q6 8 8.5 12t12.5 23l2 2v4q16 35 28.5 94t12.5 115q0 66 -9 133t-16 131q-6 55 4.5 104t39 87t76.5 59.5t120 21.5q51 0 82 -12t48 -30.5t25.5 -42t18.5 -44.5q0 -2 -2 -4h-2v4q-20 51 -69.5 69.5t-106.5 18.5 q-53 0 -87 -15.5t-53.5 -42t-27.5 -61t-8 -73.5q0 -74 9 -136.5t9 -128.5q0 -18 -2 -66t-15.5 -104.5t-43 -110.5t-82.5 -85q59 -96 59 -217t-59 -250q-16 -43 -45 -82t-64 -76t-71.5 -69.5t-67.5 -63.5q-31 -25 -53.5 -50.5t-27.5 -48t12.5 -41t68.5 -26.5q4 0 36 -5 t68.5 -13t67.5 -18.5t31 -22.5t-12.5 -19.5t-28.5 -7.5q-10 -2 -16.5 -2h-14.5l-23 1q-22 1 -56 6t-72.5 13.5t-71.5 23t-55.5 34.5t-22.5 49z" />
<glyph unicode="}" horiz-adv-x="679" d="M-88 -340q0 6 5 21.5t13.5 33t19.5 30.5t23 13q10 0 12.5 -17t4.5 -34q4 -2 8 -2t8 -2q18 0 34.5 -1t37.5 3q23 2 75 24.5t109 82.5q10 4 20.5 26.5t18.5 32.5q2 16 20.5 51t18.5 109q0 98 -64 170q-2 2 0 2q-16 14 -38.5 35.5t-42 46t-34 52.5t-14.5 56q0 33 15.5 64.5 t39 61.5t51.5 57.5t52 54.5q8 10 17.5 18t19.5 19q-35 20 -35 71q0 23 6 52q23 61 60 120.5t80 120t88 121.5t86 123q18 27 36.5 56.5t35 60t26.5 62.5t10 61q0 35 -21.5 51t-56.5 16q-25 0 -60.5 -11t-70 -29.5t-64.5 -41t-42 -45.5l-2 -2q-4 0 -6 5t-2 9q0 18 26.5 44 t66.5 50.5t87 41t88 16.5t69.5 -20.5t28.5 -67.5q0 -63 -32.5 -134t-80 -143.5t-102.5 -145.5t-99 -141.5t-70.5 -132t-18.5 -116.5q4 0 2 -3t14 -7l-2 2h4q27 18 52.5 29.5t50.5 11.5q10 0 16 -2q6 -6 6 -13q0 -6 -6 -8q-10 -6 -17.5 -12t-15.5 -10q20 2 40 5t40 7 q12 0 12 -12q0 -14 -20.5 -24.5t-47 -17t-54 -8.5t-41.5 -2q-27 -20 -51.5 -44.5t-51.5 -53.5q-31 -37 -60.5 -77t-27.5 -68q0 -31 19.5 -54.5t46.5 -48.5q20 -25 41.5 -49t38 -55t27.5 -67t11 -81q0 -84 -31.5 -160.5t-88 -136t-134 -95.5t-170.5 -36q-18 0 -40.5 3 t-22.5 28zM498 -246q0 2 2 2z" />
<glyph unicode="&#xa0;" />
<glyph unicode="&#xbf;" horiz-adv-x="1200" d="M868 -532q0 78 48.5 158.5t121 161.5t157.5 161t156.5 155t118 143.5t41.5 127.5v18.5t-2 17.5t-8 10t-20 -1q-6 -2 -9.5 -3t-7.5 -1q-18 0 -18 12q0 8 9 18.5t21.5 18.5t24.5 14.5t17 6.5q0 -2 -2 -2l-3 -2q6 0 10.5 6t26.5 6q27 0 39.5 -14.5t7.5 -30.5 q-29 -119 -91 -219.5t-137 -185.5t-153.5 -158.5t-143 -141t-106.5 -130t-42 -126.5q0 -12 2 -29.5t6 -35t10 -28.5t14 -11v-2q-2 0 -4 2l4 -4q10 -18 30 -19.5t36 -9.5h2q2 0 2 -2q96 0 217 47t247 124t248 173.5t222 196.5q6 6 12 6q10 0 10 -8q0 -2 -4 -6 q-37 -47 -100 -108.5t-143 -126t-171 -127t-184.5 -112t-182.5 -79t-167 -29.5t-120 43t-42 125zM1655 805q0 41 24.5 74t55.5 33q27 0 26 -25q0 -14 -8 -23.5t-17.5 -16.5t-17.5 -16t-8 -22v-14v-4q0 -8 -7 -15.5t-15 -7.5q-16 0 -24.5 10.5t-8.5 26.5z" />
<glyph unicode="&#x2000;" horiz-adv-x="960" />
<glyph unicode="&#x2001;" horiz-adv-x="1921" />
<glyph unicode="&#x2002;" horiz-adv-x="960" />
<glyph unicode="&#x2003;" horiz-adv-x="1921" />
<glyph unicode="&#x2004;" horiz-adv-x="640" />
<glyph unicode="&#x2005;" horiz-adv-x="480" />
<glyph unicode="&#x2006;" horiz-adv-x="320" />
<glyph unicode="&#x2007;" horiz-adv-x="320" />
<glyph unicode="&#x2008;" horiz-adv-x="240" />
<glyph unicode="&#x2009;" horiz-adv-x="384" />
<glyph unicode="&#x200a;" horiz-adv-x="106" />
<glyph unicode="&#x202f;" horiz-adv-x="384" />
<glyph unicode="&#x205f;" horiz-adv-x="480" />
<glyph unicode="&#x20ac;" horiz-adv-x="940" d="M23 489q0 8 18 13.5t44 7.5t52.5 4t42.5 4q20 45 47 89t60 85q-39 -6 -76 -14.5t-74 -18.5q-12 0 -12 9q0 8 22.5 16t53 15.5t61.5 13.5t49 10q39 47 85 89t93 83q49 41 109.5 88t126.5 86t133.5 64.5t130.5 25.5q20 0 31 -2q10 -2 30.5 -7t41 -13.5t36 -18.5t15.5 -22 q0 -10 -10 -11q-2 0 -5 2q-41 35 -110 35q-78 0 -168 -40t-177 -98t-163 -125.5t-125 -123.5q111 16 233.5 31.5t241.5 15.5q8 0 22.5 -1t14.5 -13q0 -20 -35 -25.5t-65 -5.5q-102 -8 -214 -14t-227 -21l-24 -30q-29 -25 -53.5 -68t-40.5 -78q55 12 113.5 21.5t117.5 30.5 q29 4 58.5 13t58.5 9q12 0 12 -10q0 -12 -18.5 -21.5t-43 -16.5t-47 -11t-28.5 -6q-66 -12 -124 -24.5t-114 -16.5q-63 -133 -63 -244q0 -57 27.5 -106.5t99.5 -49.5q61 0 134 35t146.5 87t143 115.5t125.5 121.5q6 8 19 20t27.5 24.5t27 21.5t18.5 9q14 0 14 -14 q0 -10 -8 -20q-12 -14 -49 -54.5t-89.5 -90.5t-117 -104.5t-135 -99.5t-142 -74.5t-139.5 -29.5q-86 0 -125 58.5t-39 133.5q0 59 18.5 125t47.5 129q-49 -6 -96 -6h-27.5t-17.5 8z" />
<glyph unicode="&#x25fc;" horiz-adv-x="727" d="M0 0v727h727v-727h-727z" />
</font>
</defs>
</svg>
